<mxfile host="app.diagrams.net" modified="2024-04-24T08:55:25.307Z" agent="Mozilla/5.0 (Macintosh; Intel Mac OS X 10_15_7) AppleWebKit/537.36 (KHTML, like Gecko) Chrome/123.0.0.0 Safari/537.36" version="24.2.3" etag="F5EyAIOCUUf_MKN7ByA0" type="github">
  <diagram name="Page-1" id="sp7hzeFThayZcA67d8Rr">
    <mxGraphModel>
      <root>
        <mxCell id="0" />
        <mxCell id="1" parent="0" />
      </root>
    </mxGraphModel>
  </diagram>
</mxfile>
